<mxfile host="app.diagrams.net" modified="2023-03-30T00:32:47.871Z" agent="Mozilla/5.0 (X11; Ubuntu; Linux x86_64; rv:109.0) Gecko/20100101 Firefox/111.0" etag="gQ-DSczk25Qr6y1uR7iA" version="21.1.1" type="device">
  <diagram name="Página-1" id="vbS0wI50Kay_C1lFD2Ew">
    <mxGraphModel dx="1707" dy="406" grid="1" gridSize="10" guides="1" tooltips="1" connect="1" arrows="1" fold="1" page="1" pageScale="1" pageWidth="827" pageHeight="1169" math="0" shadow="0">
      <root>
        <mxCell id="0" />
        <mxCell id="1" parent="0" />
        <mxCell id="OoObL3rZycz_BdgjSXhC-17" value="" style="rounded=0;whiteSpace=wrap;html=1;" vertex="1" parent="1">
          <mxGeometry x="670" y="185" width="190" height="120" as="geometry" />
        </mxCell>
        <mxCell id="OoObL3rZycz_BdgjSXhC-22" style="edgeStyle=orthogonalEdgeStyle;rounded=0;orthogonalLoop=1;jettySize=auto;html=1;exitX=1;exitY=0.25;exitDx=0;exitDy=0;" edge="1" parent="1" source="OoObL3rZycz_BdgjSXhC-2">
          <mxGeometry relative="1" as="geometry">
            <mxPoint x="660" y="110" as="targetPoint" />
          </mxGeometry>
        </mxCell>
        <mxCell id="OoObL3rZycz_BdgjSXhC-23" style="edgeStyle=orthogonalEdgeStyle;rounded=0;orthogonalLoop=1;jettySize=auto;html=1;exitX=1;exitY=0.75;exitDx=0;exitDy=0;" edge="1" parent="1" source="OoObL3rZycz_BdgjSXhC-2">
          <mxGeometry relative="1" as="geometry">
            <mxPoint x="660" y="230" as="targetPoint" />
          </mxGeometry>
        </mxCell>
        <mxCell id="OoObL3rZycz_BdgjSXhC-2" value="" style="rounded=0;whiteSpace=wrap;html=1;" vertex="1" parent="1">
          <mxGeometry x="300" y="50" width="330" height="240" as="geometry" />
        </mxCell>
        <mxCell id="OoObL3rZycz_BdgjSXhC-16" value="" style="rounded=0;whiteSpace=wrap;html=1;" vertex="1" parent="1">
          <mxGeometry x="670" y="40" width="190" height="120" as="geometry" />
        </mxCell>
        <mxCell id="OoObL3rZycz_BdgjSXhC-3" style="edgeStyle=orthogonalEdgeStyle;rounded=0;orthogonalLoop=1;jettySize=auto;html=1;" edge="1" parent="1" source="OoObL3rZycz_BdgjSXhC-1" target="OoObL3rZycz_BdgjSXhC-2">
          <mxGeometry relative="1" as="geometry" />
        </mxCell>
        <mxCell id="OoObL3rZycz_BdgjSXhC-1" value="&lt;div&gt;nosotros mandando curl&lt;br&gt;&lt;/div&gt;" style="shape=umlActor;verticalLabelPosition=bottom;verticalAlign=top;html=1;outlineConnect=0;" vertex="1" parent="1">
          <mxGeometry x="40" y="140" width="30" height="60" as="geometry" />
        </mxCell>
        <mxCell id="OoObL3rZycz_BdgjSXhC-4" value="" style="outlineConnect=0;dashed=0;verticalLabelPosition=bottom;verticalAlign=top;align=center;html=1;shape=mxgraph.aws3.http_protocol;fillColor=#5294CF;gradientColor=none;" vertex="1" parent="1">
          <mxGeometry x="150" y="90" width="63" height="66" as="geometry" />
        </mxCell>
        <mxCell id="OoObL3rZycz_BdgjSXhC-5" value="Get localhost/saludo/" style="text;html=1;strokeColor=none;fillColor=none;align=center;verticalAlign=middle;whiteSpace=wrap;rounded=0;" vertex="1" parent="1">
          <mxGeometry x="121.5" y="60" width="120" height="30" as="geometry" />
        </mxCell>
        <mxCell id="OoObL3rZycz_BdgjSXhC-6" value="Server web spring" style="text;html=1;strokeColor=none;fillColor=none;align=center;verticalAlign=middle;whiteSpace=wrap;rounded=0;" vertex="1" parent="1">
          <mxGeometry x="300" y="50" width="120" height="30" as="geometry" />
        </mxCell>
        <mxCell id="OoObL3rZycz_BdgjSXhC-11" value="/Saludo" style="ellipse;whiteSpace=wrap;html=1;aspect=fixed;" vertex="1" parent="1">
          <mxGeometry x="725" y="210" width="80" height="80" as="geometry" />
        </mxCell>
        <mxCell id="OoObL3rZycz_BdgjSXhC-12" value="Tarea generica" style="text;html=1;strokeColor=none;fillColor=none;align=center;verticalAlign=middle;whiteSpace=wrap;rounded=0;" vertex="1" parent="1">
          <mxGeometry x="710" y="40" width="110" height="30" as="geometry" />
        </mxCell>
        <mxCell id="OoObL3rZycz_BdgjSXhC-13" value="&lt;div&gt;Dockerizamos primero esto y desp las tareas Y LUEGO&lt;/div&gt;&lt;div&gt;conectamos el server con las tareas&lt;br&gt;&lt;/div&gt;" style="text;html=1;strokeColor=none;fillColor=none;align=center;verticalAlign=middle;whiteSpace=wrap;rounded=0;" vertex="1" parent="1">
          <mxGeometry x="300" y="155" width="350" height="30" as="geometry" />
        </mxCell>
        <mxCell id="OoObL3rZycz_BdgjSXhC-14" value="/" style="text;html=1;strokeColor=none;fillColor=none;align=center;verticalAlign=middle;whiteSpace=wrap;rounded=0;" vertex="1" parent="1">
          <mxGeometry x="850" y="156" width="60" height="30" as="geometry" />
        </mxCell>
        <mxCell id="OoObL3rZycz_BdgjSXhC-15" value="/Suma" style="ellipse;whiteSpace=wrap;html=1;aspect=fixed;" vertex="1" parent="1">
          <mxGeometry x="770" y="75" width="80" height="80" as="geometry" />
        </mxCell>
        <mxCell id="OoObL3rZycz_BdgjSXhC-18" value="Tarea generica" style="text;html=1;strokeColor=none;fillColor=none;align=center;verticalAlign=middle;whiteSpace=wrap;rounded=0;" vertex="1" parent="1">
          <mxGeometry x="710" y="185" width="110" height="30" as="geometry" />
        </mxCell>
        <mxCell id="OoObL3rZycz_BdgjSXhC-24" value="" style="shape=image;html=1;verticalAlign=top;verticalLabelPosition=bottom;labelBackgroundColor=#ffffff;imageAspect=0;aspect=fixed;image=https://cdn1.iconfinder.com/data/icons/bootstrap-vol-3/16/filetype-json-128.png" vertex="1" parent="1">
          <mxGeometry x="150" y="185" width="70" height="70" as="geometry" />
        </mxCell>
        <mxCell id="OoObL3rZycz_BdgjSXhC-25" value="Ahora funciona con json" style="text;html=1;strokeColor=none;fillColor=none;align=center;verticalAlign=middle;whiteSpace=wrap;rounded=0;" vertex="1" parent="1">
          <mxGeometry x="127.5" y="260" width="115" height="30" as="geometry" />
        </mxCell>
        <mxCell id="OoObL3rZycz_BdgjSXhC-26" value="La complicación ahora es separar al server de las tareas genericas" style="text;html=1;strokeColor=none;fillColor=none;align=center;verticalAlign=middle;whiteSpace=wrap;rounded=0;" vertex="1" parent="1">
          <mxGeometry x="300" y="10" width="320" height="30" as="geometry" />
        </mxCell>
      </root>
    </mxGraphModel>
  </diagram>
</mxfile>
